<svg width="18" height="14" viewBox="0 0 18 14" fill="none" xmlns="http://www.w3.org/2000/svg">
<path d="M17.125 13.25C17.125 13.4158 17.0592 13.5747 16.9419 13.6919C16.8247 13.8092 16.6658 13.875 16.5 13.875H1.5C1.33424 13.875 1.17527 13.8092 1.05806 13.6919C0.940848 13.5747 0.875 13.4158 0.875 13.25V0.75C0.875 0.58424 0.940848 0.425269 1.05806 0.308058C1.17527 0.190848 1.33424 0.125 1.5 0.125C1.66576 0.125 1.82473 0.190848 1.94194 0.308058C2.05915 0.425269 2.125 0.58424 2.125 0.75V9.24141L6.05781 5.30781C6.11586 5.2497 6.18479 5.2036 6.26066 5.17215C6.33654 5.1407 6.41787 5.12451 6.5 5.12451C6.58213 5.12451 6.66346 5.1407 6.73934 5.17215C6.81521 5.2036 6.88414 5.2497 6.94219 5.30781L9 7.36641L13.1164 3.25H11.5C11.3342 3.25 11.1753 3.18415 11.0581 3.06694C10.9408 2.94973 10.875 2.79076 10.875 2.625C10.875 2.45924 10.9408 2.30027 11.0581 2.18306C11.1753 2.06585 11.3342 2 11.5 2H14.625C14.7908 2 14.9497 2.06585 15.0669 2.18306C15.1842 2.30027 15.25 2.45924 15.25 2.625V5.75C15.25 5.91576 15.1842 6.07473 15.0669 6.19194C14.9497 6.30915 14.7908 6.375 14.625 6.375C14.4592 6.375 14.3003 6.30915 14.1831 6.19194C14.0658 6.07473 14 5.91576 14 5.75V4.13359L9.44219 8.69219C9.38414 8.7503 9.31521 8.7964 9.23934 8.82785C9.16346 8.8593 9.08213 8.87549 9 8.87549C8.91787 8.87549 8.83654 8.8593 8.76066 8.82785C8.68479 8.7964 8.61586 8.7503 8.55781 8.69219L6.5 6.63359L2.125 11.0086V12.625H16.5C16.6658 12.625 16.8247 12.6908 16.9419 12.8081C17.0592 12.9253 17.125 13.0842 17.125 13.25Z" fill="#DFDEE4"/>
</svg>
