<svg width="14" height="19" viewBox="0 0 14 19" fill="none" xmlns="http://www.w3.org/2000/svg">
<path d="M10.5938 3.73042C9.62873 2.61591 8.54261 1.61233 7.35547 0.738228C7.25038 0.664612 7.12518 0.625122 6.99687 0.625122C6.86857 0.625122 6.74337 0.664612 6.63828 0.738228C5.45332 1.6127 4.36931 2.61626 3.40625 3.73042C1.25859 6.19682 0.125 8.79682 0.125 11.2499C0.125 13.0733 0.849328 14.822 2.13864 16.1113C3.42795 17.4006 5.17664 18.1249 7 18.1249C8.82336 18.1249 10.572 17.4006 11.8614 16.1113C13.1507 14.822 13.875 13.0733 13.875 11.2499C13.875 8.79682 12.7414 6.19682 10.5938 3.73042ZM11.6742 14.3749H2.32578C2.0663 13.9859 1.85634 13.566 1.70078 13.1249H12.3023C12.1458 13.5661 11.9348 13.986 11.6742 14.3749ZM12.625 11.2499C12.6249 11.4588 12.6129 11.6675 12.5891 11.8749H1.41094C1.38713 11.6675 1.37513 11.4588 1.375 11.2499C1.375 11.0416 1.38438 10.8333 1.40313 10.6249H12.5969C12.6156 10.8333 12.625 11.0416 12.625 11.2499ZM7 2.0312C8.10625 2.89838 11.4422 5.76088 12.3781 9.37495H1.62187C2.55781 5.76245 5.89375 2.89995 7 2.0312ZM3.46953 15.6249H10.5305C9.53153 16.4336 8.28525 16.8749 7 16.8749C5.71475 16.8749 4.46847 16.4336 3.46953 15.6249Z" fill="#DFDEE4"/>
</svg>
