<svg width="16" height="16" viewBox="0 0 16 16" fill="none" xmlns="http://www.w3.org/2000/svg">
<path d="M3.55782 6.94217L1.05782 4.44217C0.999706 4.38412 0.953606 4.31519 0.922153 4.23932C0.890701 4.16345 0.874512 4.08212 0.874512 3.99998C0.874512 3.91785 0.890701 3.83652 0.922153 3.76064C0.953606 3.68477 0.999706 3.61584 1.05782 3.55779L3.55782 1.05779C3.67509 0.940518 3.83415 0.874634 4 0.874634C4.16586 0.874634 4.32492 0.940518 4.44219 1.05779C4.55947 1.17507 4.62535 1.33413 4.62535 1.49998C4.62535 1.66583 4.55947 1.82489 4.44219 1.94217L2.3836 3.99998L4.44219 6.05779C4.55947 6.17507 4.62535 6.33413 4.62535 6.49998C4.62535 6.66583 4.55947 6.82489 4.44219 6.94217C4.32492 7.05944 4.16586 7.12533 4 7.12533C3.83415 7.12533 3.67509 7.05944 3.55782 6.94217ZM6.68282 6.94217C6.74086 7.00028 6.80979 7.04638 6.88567 7.07783C6.96154 7.10928 7.04287 7.12547 7.125 7.12547C7.20714 7.12547 7.28847 7.10928 7.36434 7.07783C7.44021 7.04638 7.50915 7.00028 7.56719 6.94217L10.0672 4.44217C10.1253 4.38412 10.1714 4.31519 10.2029 4.23932C10.2343 4.16345 10.2505 4.08212 10.2505 3.99998C10.2505 3.91785 10.2343 3.83652 10.2029 3.76064C10.1714 3.68477 10.1253 3.61584 10.0672 3.55779L7.56719 1.05779C7.44992 0.940518 7.29086 0.874634 7.125 0.874634C6.95915 0.874634 6.80009 0.940518 6.68282 1.05779C6.56554 1.17507 6.49966 1.33413 6.49966 1.49998C6.49966 1.66583 6.56554 1.82489 6.68282 1.94217L8.74141 3.99998L6.68282 6.05779C6.62471 6.11584 6.57861 6.18477 6.54715 6.26064C6.5157 6.33652 6.49951 6.41785 6.49951 6.49998C6.49951 6.58212 6.5157 6.66345 6.54715 6.73932C6.57861 6.81519 6.62471 6.88412 6.68282 6.94217ZM14.625 2.12498H12.75C12.5842 2.12498 12.4253 2.19083 12.3081 2.30804C12.1909 2.42525 12.125 2.58422 12.125 2.74998C12.125 2.91574 12.1909 3.07471 12.3081 3.19192C12.4253 3.30913 12.5842 3.37498 12.75 3.37498H14.625V14.625H3.375V9.62498C3.375 9.45922 3.30916 9.30025 3.19194 9.18304C3.07473 9.06583 2.91576 8.99998 2.75 8.99998C2.58424 8.99998 2.42527 9.06583 2.30806 9.18304C2.19085 9.30025 2.125 9.45922 2.125 9.62498V14.625C2.125 14.9565 2.2567 15.2744 2.49112 15.5089C2.72554 15.7433 3.04348 15.875 3.375 15.875H14.625C14.9565 15.875 15.2745 15.7433 15.5089 15.5089C15.7433 15.2744 15.875 14.9565 15.875 14.625V3.37498C15.875 3.04346 15.7433 2.72552 15.5089 2.4911C15.2745 2.25668 14.9565 2.12498 14.625 2.12498Z" fill="#DFDEE4"/>
</svg>
