<svg width="20" height="15" viewBox="0 0 20 15" fill="none" xmlns="http://www.w3.org/2000/svg">
<path d="M19.8672 5.43045L17.8734 1.44139C17.8 1.29457 17.6983 1.16365 17.5743 1.05612C17.4502 0.948581 17.3062 0.866535 17.1505 0.814663C16.9947 0.762792 16.8303 0.742111 16.6665 0.753801C16.5027 0.765491 16.3429 0.809324 16.1961 0.882796L14.2531 1.85389L10.1602 0.771077C10.0551 0.743747 9.94486 0.743747 9.83984 0.771077L5.74687 1.85389L3.8039 0.882796C3.65709 0.809324 3.49725 0.765491 3.33349 0.753801C3.16974 0.742111 3.00529 0.762792 2.84953 0.814663C2.69377 0.866535 2.54975 0.948581 2.42571 1.05612C2.30166 1.16365 2.20001 1.29457 2.12656 1.44139L0.132809 5.42967C0.059337 5.57648 0.0155044 5.73633 0.00381413 5.90008C-0.00787612 6.06383 0.012805 6.22828 0.0646764 6.38404C0.116548 6.5398 0.198593 6.68382 0.306128 6.80787C0.413663 6.93192 0.54458 7.03357 0.691403 7.10701L2.80078 8.16248L7.13593 11.2586C7.19981 11.304 7.27162 11.3371 7.34765 11.3562L12.3477 12.6062C12.4524 12.6325 12.5621 12.6312 12.6661 12.6024C12.7702 12.5737 12.865 12.5185 12.9414 12.4422L17.2437 8.13905L19.3078 7.10701C19.6041 6.95868 19.8294 6.69875 19.9342 6.38437C20.0389 6.06998 20.0145 5.72687 19.8664 5.43045H19.8672ZM15.5789 8.03748L12.8906 5.88436C12.7702 5.78791 12.6183 5.73942 12.4643 5.74822C12.3103 5.75702 12.1649 5.82248 12.0562 5.93201C10.6648 7.33358 9.11406 7.15623 8.125 6.53123L11.5031 3.24998H13.9883L16.1141 7.50076L15.5789 8.03748ZM3.24453 1.99998L4.84375 2.79842L2.84609 6.7867L1.25 5.98905L3.24453 1.99998ZM12.307 11.307L7.76718 10.1726L3.92343 7.42733L6.11093 3.05233L10 2.02186L10.7656 2.2242L7.25 5.6367L7.24375 5.64373C7.11141 5.77607 7.01047 5.93644 6.94839 6.113C6.88632 6.28956 6.86468 6.4778 6.88507 6.66385C6.90547 6.84989 6.96738 7.02897 7.06624 7.18789C7.1651 7.3468 7.29838 7.48149 7.45625 7.58201C9.0625 8.6078 11.0008 8.44139 12.5273 7.19139L14.6875 8.92655L12.307 11.307ZM17.1508 6.78592L15.157 2.80155L16.7555 1.99998L18.75 5.98905L17.1508 6.78592ZM10.2953 14.0258C10.2615 14.1608 10.1836 14.2808 10.074 14.3666C9.96426 14.4523 9.82908 14.499 9.68984 14.4992C9.63849 14.4991 9.58733 14.4928 9.5375 14.4805L6.28203 13.6664C6.20589 13.6476 6.13403 13.6145 6.07031 13.5687L4.01171 12.0984C3.88514 11.999 3.80177 11.8547 3.77898 11.6954C3.75619 11.536 3.79573 11.3741 3.88937 11.2432C3.983 11.1123 4.12351 11.0226 4.28165 10.9927C4.43978 10.9628 4.60334 10.9951 4.73828 11.0828L6.7 12.4844L9.84375 13.2687C10.0045 13.309 10.1427 13.4114 10.228 13.5535C10.3133 13.6956 10.3386 13.8658 10.2984 14.0265L10.2953 14.0258Z" fill="#DFDEE4"/>
</svg>
