<svg width="23" height="23" viewBox="0 0 23 23" fill="none" xmlns="http://www.w3.org/2000/svg">
<path d="M17.5231 12.0994L12.6875 10.3125L10.9062 5.47312C10.8008 5.18656 10.6099 4.93924 10.3595 4.76455C10.109 4.58985 9.81099 4.49619 9.50562 4.49619C9.20026 4.49619 8.90224 4.58985 8.65178 4.76455C8.40133 4.93924 8.21048 5.18656 8.105 5.47312L6.3125 10.3125L1.47312 12.0938C1.18656 12.1992 0.93924 12.3901 0.764546 12.6405C0.589851 12.891 0.496185 13.189 0.496185 13.4944C0.496185 13.7997 0.589851 14.0978 0.764546 14.3482C0.93924 14.5987 1.18656 14.7895 1.47312 14.895L6.3125 16.6875L8.09375 21.5269C8.19923 21.8134 8.39008 22.0608 8.64053 22.2355C8.89099 22.4101 9.18901 22.5038 9.49437 22.5038C9.79974 22.5038 10.0978 22.4101 10.3482 22.2355C10.5987 22.0608 10.7895 21.8134 10.895 21.5269L12.6875 16.6875L17.5269 14.9062C17.8134 14.8008 18.0608 14.6099 18.2354 14.3595C18.4101 14.109 18.5038 13.811 18.5038 13.5056C18.5038 13.2003 18.4101 12.9022 18.2354 12.6518C18.0608 12.4013 17.8134 12.2105 17.5269 12.105L17.5231 12.0994ZM11.8437 15.3956C11.7419 15.4331 11.6495 15.4923 11.5728 15.569C11.4961 15.6457 11.4369 15.7382 11.3994 15.84L9.5 20.9859L7.60437 15.8438C7.56691 15.7409 7.50738 15.6474 7.42997 15.57C7.35255 15.4926 7.25912 15.4331 7.15625 15.3956L2.01406 13.5L7.15625 11.6044C7.25912 11.5669 7.35255 11.5074 7.42997 11.43C7.50738 11.3526 7.56691 11.2591 7.60437 11.1562L9.5 6.01406L11.3956 11.1562C11.4331 11.2581 11.4923 11.3505 11.569 11.4272C11.6457 11.5039 11.7382 11.5631 11.84 11.6006L16.9859 13.5L11.8437 15.3956ZM12.5 3.75C12.5 3.55109 12.579 3.36032 12.7197 3.21967C12.8603 3.07902 13.0511 3 13.25 3H14.75V1.5C14.75 1.30109 14.829 1.11032 14.9697 0.96967C15.1103 0.829018 15.3011 0.75 15.5 0.75C15.6989 0.75 15.8897 0.829018 16.0303 0.96967C16.171 1.11032 16.25 1.30109 16.25 1.5V3H17.75C17.9489 3 18.1397 3.07902 18.2803 3.21967C18.421 3.36032 18.5 3.55109 18.5 3.75C18.5 3.94891 18.421 4.13968 18.2803 4.28033C18.1397 4.42098 17.9489 4.5 17.75 4.5H16.25V6C16.25 6.19891 16.171 6.38968 16.0303 6.53033C15.8897 6.67098 15.6989 6.75 15.5 6.75C15.3011 6.75 15.1103 6.67098 14.9697 6.53033C14.829 6.38968 14.75 6.19891 14.75 6V4.5H13.25C13.0511 4.5 12.8603 4.42098 12.7197 4.28033C12.579 4.13968 12.5 3.94891 12.5 3.75ZM22.25 8.25C22.25 8.44891 22.171 8.63968 22.0303 8.78033C21.8897 8.92098 21.6989 9 21.5 9H20.75V9.75C20.75 9.94891 20.671 10.1397 20.5303 10.2803C20.3897 10.421 20.1989 10.5 20 10.5C19.8011 10.5 19.6103 10.421 19.4697 10.2803C19.329 10.1397 19.25 9.94891 19.25 9.75V9H18.5C18.3011 9 18.1103 8.92098 17.9697 8.78033C17.829 8.63968 17.75 8.44891 17.75 8.25C17.75 8.05109 17.829 7.86032 17.9697 7.71967C18.1103 7.57902 18.3011 7.5 18.5 7.5H19.25V6.75C19.25 6.55109 19.329 6.36032 19.4697 6.21967C19.6103 6.07902 19.8011 6 20 6C20.1989 6 20.3897 6.07902 20.5303 6.21967C20.671 6.36032 20.75 6.55109 20.75 6.75V7.5H21.5C21.6989 7.5 21.8897 7.57902 22.0303 7.71967C22.171 7.86032 22.25 8.05109 22.25 8.25Z" fill="#DFDEE4"/>
</svg>
