<svg width="20" height="15" viewBox="0 0 20 15" fill="none" xmlns="http://www.w3.org/2000/svg">
<path d="M19.2055 7.50234C19.1257 7.36228 19.0189 7.2395 18.8912 7.14118C18.7635 7.04285 18.6175 6.97096 18.4617 6.92969C17.8965 6.78421 17.3125 6.72572 16.7297 6.75625C17.0422 5.20547 16.8078 3.97891 16.5688 3.25156C16.4735 2.95279 16.2703 2.7002 15.9989 2.54306C15.7275 2.38591 15.4073 2.33547 15.1008 2.40156C14.3058 2.57862 13.5499 2.89952 12.8703 3.34844C12.3726 2.33175 11.648 1.443 10.7523 0.750781C10.5353 0.587996 10.2713 0.5 10 0.5C9.72869 0.5 9.4647 0.587996 9.24766 0.750781C8.35182 1.4428 7.62715 2.3316 7.12969 3.34844C6.45012 2.89952 5.6942 2.57862 4.89922 2.40156C4.59266 2.33547 4.27247 2.38591 4.00108 2.54306C3.72969 2.7002 3.52654 2.95279 3.43125 3.25156C3.19688 3.97891 2.9625 5.20469 3.27032 6.75625C2.68751 6.72572 2.10346 6.78421 1.53828 6.92969C1.38249 6.97096 1.23648 7.04285 1.10879 7.14118C0.981087 7.2395 0.874257 7.36228 0.794534 7.50234C0.711101 7.64582 0.657077 7.80449 0.635616 7.96907C0.614155 8.13365 0.625685 8.30086 0.669534 8.46094C0.934378 9.44297 1.74766 11.3109 4.21094 12.7828C6.67422 14.2547 8.83828 14.25 10.0039 14.25C11.1695 14.25 13.3375 14.25 15.7852 12.7828C18.2484 11.3109 19.0617 9.44297 19.3266 8.46094C19.371 8.30111 19.3832 8.13404 19.3624 7.96947C19.3416 7.80489 19.2883 7.6461 19.2055 7.50234ZM4.62031 3.63594C4.62125 3.63206 4.62363 3.62869 4.62697 3.62651C4.63031 3.62433 4.63436 3.62351 4.63828 3.62422C5.36523 3.78843 6.05123 4.09861 6.65469 4.53594C6.37992 5.43481 6.24346 6.37025 6.25 7.31016C6.25 8.77422 6.54453 9.96641 6.96172 10.9258C6.36863 10.3322 5.85545 9.66378 5.43516 8.9375C4.02735 6.48594 4.32031 4.5625 4.62031 3.63594ZM4.85469 11.7102C2.7711 10.4664 2.09532 8.94141 1.875 8.13281C2.44986 7.99128 3.04638 7.96026 3.63282 8.04141C3.8286 8.56584 4.0677 9.07306 4.34766 9.55781C5.03505 10.7429 5.9356 11.7907 7.00391 12.6484C6.24848 12.4312 5.52485 12.1158 4.85156 11.7102H4.85469ZM10 12.875C9.2711 12.3328 7.5 10.6695 7.5 7.31016C7.5 3.99219 9.24844 2.31562 10 1.75C10.7516 2.31719 12.5 3.99375 12.5 7.31172C12.5 10.6695 10.7289 12.3328 10 12.875ZM13.3453 4.53594C13.9488 4.09889 14.6348 3.78898 15.3617 3.625C15.3656 3.62429 15.3697 3.62511 15.373 3.62729C15.3764 3.62947 15.3788 3.63284 15.3797 3.63672C15.6797 4.5625 15.9727 6.48594 14.5648 8.9375C14.1449 9.66474 13.6317 10.3339 13.0383 10.9281C13.4555 9.97031 13.75 8.77656 13.75 7.3125C13.7568 6.37181 13.6203 5.43556 13.3453 4.53594ZM18.125 8.13438C17.9086 8.93516 17.2344 10.4633 15.1492 11.7102C14.4759 12.1155 13.7523 12.4307 12.9969 12.6477C14.0652 11.7899 14.9657 10.7421 15.6531 9.55703C15.9331 9.07228 16.1722 8.56506 16.368 8.04063C16.9542 7.95984 17.5505 7.99139 18.125 8.13359V8.13438Z" fill="#DFDEE4"/>
</svg>
