<svg width="11" height="11" viewBox="0 0 11 11" fill="none" xmlns="http://www.w3.org/2000/svg">
<path d="M10.4052 5.375L5.75 0.719847C5.68061 0.6499 5.59801 0.594444 5.507 0.556703C5.41598 0.518962 5.31838 0.499689 5.21985 0.500004H0.875004C0.775548 0.500004 0.680165 0.539513 0.609839 0.609839C0.539513 0.680165 0.500004 0.775548 0.500004 0.875004V5.21985C0.499689 5.31838 0.518962 5.41598 0.556703 5.507C0.594444 5.59801 0.6499 5.68061 0.719847 5.75L5.375 10.4052C5.44465 10.4748 5.52734 10.5301 5.61834 10.5678C5.70935 10.6055 5.80689 10.6249 5.90539 10.6249C6.0039 10.6249 6.10144 10.6055 6.19245 10.5678C6.28345 10.5301 6.36614 10.4748 6.43579 10.4052L10.4052 6.43579C10.4748 6.36614 10.5301 6.28345 10.5678 6.19245C10.6055 6.10144 10.6249 6.0039 10.6249 5.90539C10.6249 5.80689 10.6055 5.70935 10.5678 5.61834C10.5301 5.52734 10.4748 5.44465 10.4052 5.375ZM5.90516 9.875L1.25 5.21985V1.25H5.21985L9.875 5.90516L5.90516 9.875ZM3.5 2.9375C3.5 3.04876 3.46701 3.15751 3.40521 3.25001C3.3434 3.34251 3.25555 3.41461 3.15276 3.45719C3.04998 3.49976 2.93688 3.5109 2.82777 3.4892C2.71865 3.46749 2.61842 3.41392 2.53976 3.33525C2.46109 3.25658 2.40752 3.15636 2.38581 3.04724C2.36411 2.93813 2.37525 2.82503 2.41782 2.72224C2.4604 2.61946 2.53249 2.53161 2.625 2.4698C2.7175 2.40799 2.82625 2.375 2.9375 2.375C3.08669 2.375 3.22976 2.43427 3.33525 2.53976C3.44074 2.64525 3.5 2.78832 3.5 2.9375Z" fill="#FF5D67"/>
</svg>
